<?xml version="1.0" encoding="UTF-8" standalone="no"?>
<svg
   style="clip-rule:evenodd;fill-rule:evenodd;stroke-linejoin:round;stroke-miterlimit:2"
   version="1.1"
   viewBox="0 0 919.99998 519.99999"
   xml:space="preserve"
   id="svg4"
   sodipodi:docname="Button icon Gitbook - 920x520 - TikTok.svg"
   width="920"
   height="520"
   inkscape:version="1.4 (86a8ad7, 2024-10-11)"
   xmlns:inkscape="http://www.inkscape.org/namespaces/inkscape"
   xmlns:sodipodi="http://sodipodi.sourceforge.net/DTD/sodipodi-0.dtd"
   xmlns="http://www.w3.org/2000/svg"
   xmlns:svg="http://www.w3.org/2000/svg"
   xmlns:rdf="http://www.w3.org/1999/02/22-rdf-syntax-ns#"
   xmlns:cc="http://creativecommons.org/ns#"
   xmlns:dc="http://purl.org/dc/elements/1.1/"><defs
   id="defs4" /><sodipodi:namedview
   id="namedview4"
   pagecolor="#ffffff"
   bordercolor="#000000"
   borderopacity="0.25"
   inkscape:showpageshadow="2"
   inkscape:pageopacity="0.0"
   inkscape:pagecheckerboard="0"
   inkscape:deskcolor="#d1d1d1"
   inkscape:zoom="0.81412863"
   inkscape:cx="463.68594"
   inkscape:cy="272.07003"
   inkscape:window-width="1920"
   inkscape:window-height="1027"
   inkscape:window-x="-8"
   inkscape:window-y="-8"
   inkscape:window-maximized="1"
   inkscape:current-layer="svg4"
   showgrid="false" />
    <title
   id="title1">Blender logo (without text)</title>
    
<metadata
   id="metadata4"><rdf:RDF><cc:Work
       rdf:about=""><dc:title>Blender logo (without text)</dc:title></cc:Work></rdf:RDF></metadata><g
   id="g2"
   style="display:inline"
   transform="matrix(1.0982153,0,0,1.0982153,178.85404,-22.3269)"><path
     style="display:inline;fill:#02f3ed"
     d="m 143.48488,389.15517 c -12.55803,-10.40891 -20.74096,-21.07113 -28.03763,-36.53256 -7.26626,-15.39697 -8.90664,-23.31967 -8.92849,-43.12261 -0.0162,-14.70561 0.29417,-18.1472 2.29985,-25.5 5.28205,-19.36399 14.68713,-35.46639 28.3533,-48.54361 C 157.68266,215.82956 182.14901,206 210.49057,206 222.00384,206 222,205.99751 222,213.46497 v 6.82729 l -9.25,0.68256 c -42.4011,3.12881 -75.54249,35.37928 -86.96179,77.15426 -1.97137,7.21183 -2.28561,10.72485 -2.26945,25.37092 0.016,14.53792 0.34833,18.20794 2.29439,25.34048 4.08145,14.95901 11.80513,29.89754 21.40999,41.40952 2.1797,2.6125 4.67674,5.73369 4.48803,5.72537 -0.18872,-0.008 -4.36797,-3.62218 -8.22629,-6.8202 z M 214,367.39685 c -7.16725,-1.9176 -14.80938,-6.60169 -20.73934,-12.71175 -2.58675,-2.66531 -3.80572,-3.8901 -4.10778,-4.52966 0.46731,0.18472 1.31163,0.6126 2.53203,1.2265 1.7517,0.88116 6.3642,2.14729 10.25,2.81363 19.09458,3.27436 38.94214,-6.97033 47.56374,-24.55091 1.92707,-3.92956 3.95323,-9.56858 4.50256,-12.53115 C 254.62838,313.73118 255,269.91975 255,199.36351 V 87 h 28.45469 28.45468 l 0.4913,3.25 c 0.27021,1.7875 0.71231,4.9375 0.98244,7 l 0.49115,3.75 H 292.96135 272.04843 L 271.77422,216.75 271.5,332.5 l -2.39732,6 c -1.31852,3.3 -3.62579,7.8 -5.12725,10 -3.71013,5.43621 -11.80805,12.8638 -16.80289,15.41198 -9.74129,4.96963 -22.58143,6.31853 -33.17254,3.48487 z M 382.5,175.04163 c -11.64294,-3.2501 -23.77554,-10.30935 -31,-18.05413 l -3.75824,-3.81295 5.75824,3.09729 c 7.09875,3.81833 17.30135,6.51552 26.6659,7.68973 4.48308,0.56213 8.32872,1.19972 8.54587,1.41686 0.21714,0.21715 0.28823,2.66146 0.28823,5.67461 v 5.80305 z"
     id="path4"
     sodipodi:nodetypes="ssssssscssssscssscssssscccsscccccsssssscsssscs" /><path
     style="display:inline;fill:#fa034f"
     d="m 208.82126,425.50272 c -23.56671,-3.96597 -41.27981,-14.23238 -53.91673,-26.90775 -0.22552,-0.22621 -3.44067,-2.57891 -3.19336,-2.6196 0.30108,-0.0495 3.69301,1.49592 6.95209,3.33676 28.03113,15.83293 62.97065,17.43849 92.76339,4.26273 15.1997,-6.72203 33.15846,-21.71083 42.50725,-35.47752 5.71791,-8.42 12.38926,-22.70741 15.22096,-32.59734 2.26657,-7.91617 2.2939,-8.68894 2.6084,-73.75 0.1748,-36.1625 0.52069,-65.75 0.76863,-65.75 0.24794,0 2.5922,1.64684 5.20946,3.65965 6.92879,5.32859 23.32665,12.87632 34.25865,15.76882 8.70507,2.30328 20.10312,4.44577 32.25,6.06204 l 4.75,0.63204 v -22.63323 -22.63323 l 5.75,0.61399 c 3.1625,0.3377 7.2125,0.84047 9,1.11727 l 3.25,0.50328 V 207.54531 236 h -3.40063 c -5.47661,0 -26.343,-3.81118 -36.09937,-6.59343 -10.80345,-3.08086 -23.03383,-8.6573 -31.30226,-14.27228 l -6.06459,-4.11839 -0.41778,63.24205 c -0.44737,67.72073 -0.40022,67.04859 -5.81381,82.86926 -5.20029,15.19732 -14.06659,28.91614 -26.23964,40.6006 -9.36703,8.99106 -14.25538,12.54049 -24.36217,17.68935 -20.08846,10.234 -42.63769,13.76108 -64.47849,10.08556 z m -24.87548,-78.34077 c -14.35004,-9.16062 -22.87814,-28.2445 -20.00209,-44.75998 3.05703,-17.55477 14.31738,-30.74181 31.11027,-36.43337 5.45758,-1.84972 8.01781,-2.11665 16.69604,-1.74076 l 10.25,0.44397 v -22.37484 -22.37484 l 8.75,0.28894 8.75,0.28893 V 250 c 0,25.70666 -0.19288,29.45628 -1.5,29.16001 -4.94012,-1.11974 -16.32164,-1.23752 -21.21948,-0.21959 -13.53703,2.81345 -25.93621,12.75687 -31.96048,25.63046 -5.73267,12.25042 -4.9791,29.48247 1.80078,41.17912 1.35492,2.3375 2.72257,4.40544 2.53206,4.40544 -0.1905,0 -2.76192,-1.43256 -5.2071,-2.99349 z M 340.47462,148.22577 c -11.43895,-9.21541 -20.15864,-22.89359 -24.4373,-38.33366 -1.12053,-4.04355 -2.16306,-8.46856 -2.16306,-8.89211 0,-0.42356 3.66079,0 7.9814,0 h 7.85566 l 0.59671,7.25 c 1.14219,13.87781 7.0354,29.14862 14.17702,39.86208 1.743,2.61475 1.98437,3.00492 3.25671,5.06247 -1.00129,-0.40728 -4.00775,-2.32295 -7.26714,-4.94878 z"
     id="path3"
     sodipodi:nodetypes="sssssssssssscccsscccssscssssssssscccccssssssssssscsscs" /><path
     style="display:inline;fill:#000000"
     d="M 101.76339,469.97808 C 74.494203,465.32374 51.982498,444.92003 44.319724,417.91342 42.595618,411.837 42.5,403.38174 42.5,257 42.5,109.93637 42.588659,102.18714 44.342009,96 51.429804,70.988907 70.317696,52.114053 95.112529,45.264527 101.08853,43.613667 111.45254,43.5 256,43.5 c 146.71433,0 154.82755,0.09227 161,1.831033 24.95578,7.029978 43.56646,25.644695 50.65799,50.668967 1.75323,6.18673 1.84201,13.92207 1.84201,160.5 0,169.65965 0.42765,158.21711 -6.46562,173 -8.90426,19.09555 -23.18186,31.48706 -44.53438,38.65133 l -7,2.34867 -152.5,0.14326 c -83.875,0.0788 -154.63148,-0.22054 -157.23661,-0.66518 z m 141.35562,-44.44585 c 10.31771,-1.80696 20.70826,-5.28934 30.18074,-10.11507 10.10679,-5.14886 14.99514,-8.69829 24.36217,-17.68935 12.17305,-11.68446 21.03935,-25.40328 26.23964,-40.6006 5.41359,-15.82067 5.36644,-15.14853 5.81381,-82.86926 l 0.41778,-63.24205 6.06459,4.11839 c 8.26843,5.61498 20.49881,11.19142 31.30226,14.27228 C 377.25637,232.18882 398.12276,236 403.59937,236 H 407 v -28.45469 -28.45468 l -3.25,-0.50328 c -1.7875,-0.2768 -5.8375,-0.77957 -9,-1.11727 L 389,176.85609 v -5.80305 c 0,-5.69941 0.20337,-5.62392 -2.86583,-6.23776 -1.71875,-0.34375 -4.42191,-0.65359 -6.09921,-0.81528 -7.30115,-0.7038 -17.42312,-3.44099 -24.48539,-6.6962 -3.26352,-1.50425 -6.11366,-2.48694 -7.80781,-4.12925 -1.90056,-3.01469 -2.19985,-3.51176 -3.7318,-5.78473 C 336.0455,135.57283 331.46075,122.2557 330.30803,108.25 L 329.71132,101 h -7.74867 c -3.84595,0 -5.45435,0.20722 -8.08839,0 -0.24557,-1.875 -0.49115,-3.75 -0.88791,-6.331787 -0.19133,-1.708331 -0.3404,-3.160743 -0.58568,-4.418213 L 311.76674,87 H 283.38337 255 v 112.36351 c 0,70.55624 -0.37162,114.36767 -0.99879,117.75 -0.54933,2.96257 -2.57549,8.60159 -4.50256,12.53115 -8.6216,17.58058 -28.46916,27.82526 -47.56374,24.55091 -6.30722,-1.08157 -9.98821,-2.44785 -12.78203,-4.04013 -1.29956,-2.33722 -1.59075,-2.78141 -2.53532,-4.41101 -6.77656,-11.6911 -7.52899,-28.92569 -1.79752,-41.17355 6.02427,-12.87359 18.42345,-22.81701 31.96048,-25.63046 4.89784,-1.01793 16.27936,-0.90015 21.21948,0.21959 1.30712,0.29627 1.5,-3.45335 1.5,-29.16001 v -29.5 l -8.75,0.0812 -8.75,-0.28894 v -6.7242 C 222,205.98382 222.0246,206 210.49057,206 c -16.80002,0 -32.89445,3.68006 -46.99057,10.74458 -21.88209,10.96661 -39.69333,29.49021 -48.97799,50.93687 -6.56062,15.15439 -8.02423,22.80207 -8.00325,41.81855 0.0219,19.80294 1.66223,27.72564 8.92849,43.12261 7.75452,16.43159 16.30308,27.15397 31.41079,39.39825 4.75308,3.8522 11.56696,9.45476 15.14196,12.45011 7.37697,6.18089 22.21255,14.22078 32.32126,17.51596 14.86725,4.84635 33.59824,6.20721 48.79775,3.5453 z"
     id="path2"
     sodipodi:nodetypes="ssssssssssscssssssscssscccsscsssscsscsccscccsssscssssscccssssssssss" /></g></svg>
