<?xml version="1.0" encoding="UTF-8" standalone="no"?>
<svg
   style="clip-rule:evenodd;fill-rule:evenodd;stroke-linejoin:round;stroke-miterlimit:2"
   version="1.1"
   viewBox="0 0 919.99998 519.99999"
   xml:space="preserve"
   id="svg4"
   sodipodi:docname="Button icon Gitbook - 920x520 - Spotify.svg"
   width="920"
   height="520"
   inkscape:version="1.4 (86a8ad7, 2024-10-11)"
   xmlns:inkscape="http://www.inkscape.org/namespaces/inkscape"
   xmlns:sodipodi="http://sodipodi.sourceforge.net/DTD/sodipodi-0.dtd"
   xmlns="http://www.w3.org/2000/svg"
   xmlns:svg="http://www.w3.org/2000/svg"
   xmlns:rdf="http://www.w3.org/1999/02/22-rdf-syntax-ns#"
   xmlns:cc="http://creativecommons.org/ns#"
   xmlns:dc="http://purl.org/dc/elements/1.1/"><defs
   id="defs4" /><sodipodi:namedview
   id="namedview4"
   pagecolor="#ffffff"
   bordercolor="#000000"
   borderopacity="0.25"
   inkscape:showpageshadow="2"
   inkscape:pageopacity="0.0"
   inkscape:pagecheckerboard="0"
   inkscape:deskcolor="#d1d1d1"
   inkscape:zoom="0.57567587"
   inkscape:cx="381.29095"
   inkscape:cy="391.71348"
   inkscape:window-width="1920"
   inkscape:window-height="1027"
   inkscape:window-x="-8"
   inkscape:window-y="-8"
   inkscape:window-maximized="1"
   inkscape:current-layer="svg4" />
    <title
   id="title1">Blender logo (without text)</title>
    
<metadata
   id="metadata4"><rdf:RDF><cc:Work
       rdf:about=""><dc:title>Blender logo (without text)</dc:title></cc:Work></rdf:RDF></metadata><path
   id="path1-9"
   style="fill:#1ed760;stroke-width:19.1823"
   d="M 457.21445,24.884636 C 332.82772,26.246934 230.04187,124.97193 225.04951,250.67298 c -5.1534,129.77555 95.85734,239.13242 225.63288,244.26624 129.75593,5.1534 239.11469,-95.85634 244.2681,-225.61226 C 700.10389,139.571 599.07356,30.194528 469.31761,25.060723 465.26274,24.89968 461.22693,24.840691 457.21445,24.884636 Z M 420.81257,168.97943 c 17.2055,0.21828 34.40787,1.5352 51.5032,3.9535 45.60118,6.36488 89.78094,20.47173 130.632,41.71241 9.57087,4.98163 13.30617,16.7867 8.32454,26.37463 -4.98863,9.57736 -16.79167,13.30388 -26.37464,8.32617 -36.9079,-19.18848 -76.82455,-31.92821 -118.02449,-37.66919 -41.18801,-5.84181 -83.07056,-4.60108 -123.84059,3.66808 -25.29302,4.80863 -32.94555,-32.88238 -7.77978,-38.31833 28.20078,-5.72418 56.88392,-8.41108 85.55976,-8.04727 z m -2.89009,70.83198 c 14.87337,0.10363 29.75145,1.20512 44.53236,3.30763 39.43489,5.47604 77.56718,17.98596 112.58191,36.93526 7.71127,4.17979 10.57739,13.81857 6.41465,21.54692 -4.16665,7.7258 -13.81505,10.60026 -21.53061,6.41467 -31.69459,-17.13511 -66.19978,-28.45986 -101.88429,-33.43843 -35.67493,-5.05021 -71.9652,-3.67436 -107.15561,4.06115 -8.57728,1.90171 -17.06737,-3.52905 -18.93736,-12.11332 -1.90172,-8.57727 3.52742,-17.06736 12.11169,-18.93735 24.30058,-5.35163 49.07828,-7.94924 73.86726,-7.77653 z m -2.6944,63.41591 c 12.77279,-0.0152 25.59193,0.87544 38.4064,2.67318 34.17192,4.81102 66.58728,15.83278 96.34057,32.75667 5.87029,3.34453 7.91702,10.81501 4.57165,16.68496 -3.34418,5.86025 -11.72212,8.94935 -17.58815,5.61558 -27.06577,-15.40056 -55.52982,-24.74581 -86.37345,-29.03529 -30.82826,-4.37787 -62.2075,-2.85512 -92.46698,4.48682 -15.28284,2.96578 -21.07092,-21.18726 -6.1298,-25.56034 20.79234,-5.05414 41.95179,-7.59642 63.23976,-7.62158 z"
   sodipodi:nodetypes="sccscsscccccccssccccccccsscccccccs" /></svg>
