<?xml version="1.0" encoding="UTF-8" standalone="no"?>
<svg
   style="clip-rule:evenodd;fill-rule:evenodd;stroke-linejoin:round;stroke-miterlimit:2"
   version="1.1"
   viewBox="0 0 919.99998 519.99999"
   xml:space="preserve"
   id="svg4"
   sodipodi:docname="Button icon Gitbook - 920x520 - Spotify Playlist.svg"
   width="920"
   height="520"
   inkscape:version="1.4 (86a8ad7, 2024-10-11)"
   xmlns:inkscape="http://www.inkscape.org/namespaces/inkscape"
   xmlns:sodipodi="http://sodipodi.sourceforge.net/DTD/sodipodi-0.dtd"
   xmlns="http://www.w3.org/2000/svg"
   xmlns:svg="http://www.w3.org/2000/svg"
   xmlns:rdf="http://www.w3.org/1999/02/22-rdf-syntax-ns#"
   xmlns:cc="http://creativecommons.org/ns#"
   xmlns:dc="http://purl.org/dc/elements/1.1/"><defs
   id="defs4" /><sodipodi:namedview
   id="namedview4"
   pagecolor="#ffffff"
   bordercolor="#000000"
   borderopacity="0.25"
   inkscape:showpageshadow="2"
   inkscape:pageopacity="0.0"
   inkscape:pagecheckerboard="0"
   inkscape:deskcolor="#d1d1d1"
   inkscape:zoom="0.57567586"
   inkscape:cx="334.38956"
   inkscape:cy="174.57741"
   inkscape:window-width="1920"
   inkscape:window-height="1027"
   inkscape:window-x="-8"
   inkscape:window-y="-8"
   inkscape:window-maximized="1"
   inkscape:current-layer="g13"
   showguides="true"><sodipodi:guide
     position="156.77225,495.02934"
     orientation="0,-1"
     id="guide1"
     inkscape:locked="false" /></sodipodi:namedview>
    <title
   id="title1">Blender logo (without text)</title>
    
<metadata
   id="metadata4"><rdf:RDF><cc:Work
       rdf:about=""><dc:title>Blender logo (without text)</dc:title></cc:Work></rdf:RDF></metadata><g
   id="g13"
   transform="matrix(1.5724539,0,0,1.5724539,58.343462,-142.5479)"
   inkscape:transform-center-x="-33.255672"
   inkscape:transform-center-y="-1.0245493e-05"><path
     id="path7"
     style="fill:#1ed760;fill-opacity:1"
     d="m 450.76367,106.76758 c -4.64945,-0.0692 -10.53636,-0.0235 -18.13281,0.0723 -23.88718,0.30117 -27.6689,0.56859 -31.63086,2.23633 -12.89023,5.42599 -22.29094,15.28673 -25.99023,27.26367 -1.93179,6.25443 -2.00977,9.21267 -2.00977,75.4043 0,42.90724 -0.35876,68.89459 -0.95117,68.89453 -0.52317,0 -3.54355,-0.675 -6.71094,-1.5 -7.39697,-1.92661 -21.25152,-1.92207 -28.87695,0.01 -8.54736,2.1654 -21.10983,8.63907 -27.22461,14.02929 -15.49566,13.65952 -23.71808,35.2 -21.17188,55.46094 1.97693,15.73103 7.128,26.21979 18.42188,37.51367 11.1653,11.16531 22.36695,16.70626 37.27344,18.43555 3.70721,0.43011 8.09023,0.64045 9.74023,0.4668 11.71471,-1.23292 14.72015,-1.8508 21.15039,-4.34766 14.59443,-5.66704 26.49131,-16.55822 33.39063,-30.56836 C 415.36436,355.26749 415,361.54919 415,250.00781 V 149.79492 l 24.25,-0.32812 c 23.71656,-0.32089 24.34749,-0.38312 28.70508,-2.82813 12.78905,-7.17584 14.84126,-24.6272 4.04297,-34.38281 -4.46937,-4.0378 -7.28603,-5.2806 -21.23438,-5.48828 z M 339.08984,313.22852 c 5.35167,0.0679 10.70212,0.47825 16.01954,1.23046 14.18396,1.97975 27.92635,6.36784 40.63281,12.97461 2.97697,1.54951 4.13935,5.22085 2.58984,8.20313 -1.55169,2.97897 -5.22435,4.13813 -8.20508,2.58984 -11.47998,-5.96845 -23.89593,-9.93109 -36.71093,-11.71679 -12.81129,-1.81705 -25.83826,-1.43145 -38.51954,1.14062 -7.86724,1.49569 -10.24758,-10.22715 -2.41992,-11.91797 8.77168,-1.78048 17.69383,-2.61705 26.61328,-2.5039 z m -0.89843,22.03125 c 4.62628,0.0322 9.25405,0.37531 13.85156,1.02929 12.26599,1.7033 24.12646,5.59421 35.01758,11.48828 2.39854,1.30009 3.28892,4.29928 1.99414,6.70313 -1.29602,2.40307 -4.29541,3.29605 -6.69531,1.99414 -9.85841,-5.32977 -20.59195,-8.85183 -31.69141,-10.40039 -11.09648,-1.57083 -22.38431,-1.14242 -33.33008,1.26367 -2.66791,0.59151 -5.30897,-1.0975 -5.89062,-3.76758 -0.59151,-2.66791 1.09749,-5.30897 3.76757,-5.89062 7.55856,-1.66459 15.26611,-2.47364 22.97657,-2.41992 z m -0.83789,19.72656 c 3.97291,-0.004 7.95944,0.2709 11.94531,0.83008 10.62897,1.49643 20.71222,4.92537 29.96679,10.18945 1.82592,1.0403 2.46244,3.36363 1.42188,5.18945 -1.04018,1.8228 -3.64611,2.78499 -5.4707,1.74805 -8.41865,-4.79026 -17.27347,-7.69703 -26.86719,-9.03125 -9.58895,-1.36171 -19.34774,-0.88914 -28.75977,1.39453 -4.75363,0.92249 -6.55555,-6.58901 -1.9082,-7.94922 6.46734,-1.57207 13.05039,-2.36327 19.67188,-2.37109 z" /><path
     id="path1"
     style="fill:#000000;stroke:#1ed760;stroke-opacity:1;stroke-width:3.17974346;stroke-dasharray:none"
     d="m 202,106.5332 c -55.20153,0 -110.403841,0.44526 -113.384766,1.33594 -5.312782,1.58742 -11.797344,8.07394 -13.384765,13.38672 -1.84113,6.1619 -1.502685,10.44279 1.263672,15.99414 2.797959,5.61478 6.885476,9.08735 12.925781,10.97852 3.199177,1.00163 27.407328,1.29135 112.148438,1.34375 119.24595,0.0738 124.08556,0.30273 130.72689,-6.15821 9.04869,-8.80291 9.29455,-21.58435 0.58398,-30.29492 -2.2682,-2.2682 -5.81247,-4.55612 -8.13476,-5.25 C 321.76354,106.97846 257.20153,106.5332 202,106.5332 Z m 0,85.06446 c -54.35163,0 -108.703265,0.37764 -111.5,1.13086 -9.008221,2.42612 -16.5,11.38821 -16.5,19.74023 0,8.87768 6.422237,18.43917 14.009766,20.85547 5.27103,1.67863 231.130504,1.76044 236.734704,0.0859 8.12926,-2.42892 14.61523,-11.72384 14.61523,-20.94137 0,-8.35202 -7.49178,-17.31411 -16.5,-19.74023 C 320.06296,191.9753 256.35163,191.59766 202,191.59766 Z m -85.53906,86.15625 c -32.343414,0.14023 -31.860299,1.37209 -36.830081,6.87304 -9.563571,10.58573 -6.120181,27.22637 6.861329,33.15821 3.780966,1.7277 7.991405,1.81692 74.171872,1.59179 l 82.16406,-0.23828 c 4.97935,-0.0144 8.33594,-3.04492 8.33594,-3.04492 12.33294,-8.66004 12.33293,-26.2501 0,-34.91016 0,0 -3.43212,-3.02815 -8.33594,-3.04492 l -81.66406,-0.27929 c -19.49324,-0.0782 -33.92199,-0.15222 -44.70312,-0.10547 z m 0,86 c -32.343414,0.14023 -31.860299,1.37209 -36.830081,6.87304 -9.563571,10.58573 -6.120181,27.22637 6.861329,33.15821 3.780966,1.7277 7.991405,1.81692 74.171872,1.59179 l 82.16406,-0.23828 c 5.13478,-0.0149 8.33594,-3.04492 8.33594,-3.04492 12.33295,-8.66003 12.33294,-26.25012 0,-34.91016 0,0 -2.96733,-3.02656 -8.33594,-3.04492 l -81.66406,-0.27929 c -19.49324,-0.0782 -33.92199,-0.15222 -44.70312,-0.10547 z"
     sodipodi:nodetypes="ssssscsssssssccssssssccccscssssccccscs" /></g></svg>
