<?xml version="1.0" encoding="UTF-8" standalone="no"?>
<svg
   style="clip-rule:evenodd;fill-rule:evenodd;stroke-linejoin:round;stroke-miterlimit:2"
   version="1.1"
   viewBox="0 0 919.99998 519.99999"
   xml:space="preserve"
   id="svg4"
   sodipodi:docname="Button icon Gitbook - 920x520 - Spotify.svg"
   width="920"
   height="520"
   inkscape:version="1.4 (86a8ad7, 2024-10-11)"
   xmlns:inkscape="http://www.inkscape.org/namespaces/inkscape"
   xmlns:sodipodi="http://sodipodi.sourceforge.net/DTD/sodipodi-0.dtd"
   xmlns="http://www.w3.org/2000/svg"
   xmlns:svg="http://www.w3.org/2000/svg"
   xmlns:rdf="http://www.w3.org/1999/02/22-rdf-syntax-ns#"
   xmlns:cc="http://creativecommons.org/ns#"
   xmlns:dc="http://purl.org/dc/elements/1.1/"><defs
   id="defs4" /><sodipodi:namedview
   id="namedview4"
   pagecolor="#ffffff"
   bordercolor="#000000"
   borderopacity="0.25"
   inkscape:showpageshadow="2"
   inkscape:pageopacity="0.0"
   inkscape:pagecheckerboard="0"
   inkscape:deskcolor="#d1d1d1"
   inkscape:zoom="0.57567587"
   inkscape:cx="410.82146"
   inkscape:cy="398.66184"
   inkscape:window-width="1920"
   inkscape:window-height="1027"
   inkscape:window-x="-8"
   inkscape:window-y="-8"
   inkscape:window-maximized="1"
   inkscape:current-layer="svg4" />
    <title
   id="title1">Blender logo (without text)</title>
    
<metadata
   id="metadata4"><rdf:RDF><cc:Work
       rdf:about=""><dc:title>Blender logo (without text)</dc:title></cc:Work></rdf:RDF></metadata><path
   id="path1-9"
   style="fill:#1ed760;stroke-width:19.1823"
   d="M 457.21445,24.884636 C 332.82772,26.246934 230.04187,124.97193 225.04951,250.67298 c -5.1534,129.77555 95.85734,239.13242 225.63288,244.26624 129.75593,5.1534 239.11469,-95.85634 244.2681,-225.61226 C 700.10389,139.571 599.07356,30.194528 469.31761,25.060723 465.26274,24.89968 461.22693,24.840691 457.21445,24.884636 Z M 414.98357,155.46805 c 19.76137,0.25071 39.51913,1.76325 59.15396,4.54079 52.37519,7.31038 103.11782,23.51279 150.03727,47.90875 10.99262,5.72165 15.28279,19.28035 9.56114,30.29256 -5.72968,11.00007 -19.28606,15.28016 -30.29257,9.56302 -42.39053,-22.03891 -88.23677,-36.67112 -135.55692,-43.26492 -47.30646,-6.70961 -95.41062,-5.28457 -142.237,4.21297 -29.05028,5.52295 -37.83959,-37.76703 -8.93547,-44.01048 32.38999,-6.57451 65.33398,-9.66054 98.26959,-9.24269 z m -3.31941,81.35401 c 17.0828,0.11903 34.17101,1.38414 51.14761,3.79898 45.2929,6.2895 89.08972,20.65776 129.30585,42.42196 8.85678,4.80069 12.14865,15.87131 7.36754,24.74769 -4.7856,8.87346 -15.86726,12.17492 -24.72896,7.36757 -36.40279,-19.68052 -76.0337,-32.68755 -117.01911,-38.40568 -40.97441,-5.80042 -82.65557,-4.22019 -123.07349,4.66443 -9.85142,2.18421 -19.60271,-4.05329 -21.75048,-13.91274 -2.18422,-9.85142 4.05141,-19.60271 13.91086,-21.75048 27.91042,-6.14661 56.36882,-9.1301 84.84018,-8.93173 z m -3.09465,72.83629 c 14.67018,-0.0174 29.39359,1.00548 44.11164,3.07028 39.24813,5.52569 76.47876,18.18472 110.65188,37.62264 6.74232,3.84136 9.09308,12.42157 5.25076,19.1635 -3.84095,6.73078 -13.46343,10.27877 -20.20085,6.44977 -31.08637,-17.6883 -63.77873,-28.42178 -99.20415,-33.34846 -35.40777,-5.0282 -71.44837,-3.27924 -106.20287,5.15334 -17.5531,3.40634 -24.20099,-24.33461 -7.04038,-29.35731 23.88102,-5.80493 48.18369,-8.72486 72.63397,-8.75376 z"
   sodipodi:nodetypes="sccscsscccccccssccccccccsscccccccs" /></svg>
