<?xml version="1.0" encoding="UTF-8" standalone="no"?>
<svg
   style="clip-rule:evenodd;fill-rule:evenodd;stroke-linejoin:round;stroke-miterlimit:2"
   version="1.1"
   viewBox="0 0 919.99998 519.99999"
   xml:space="preserve"
   id="svg4"
   sodipodi:docname="Button icon Gitbook - 920x520 - YouTube.svg"
   width="920"
   height="520"
   inkscape:version="1.4 (86a8ad7, 2024-10-11)"
   xmlns:inkscape="http://www.inkscape.org/namespaces/inkscape"
   xmlns:sodipodi="http://sodipodi.sourceforge.net/DTD/sodipodi-0.dtd"
   xmlns="http://www.w3.org/2000/svg"
   xmlns:svg="http://www.w3.org/2000/svg"
   xmlns:rdf="http://www.w3.org/1999/02/22-rdf-syntax-ns#"
   xmlns:cc="http://creativecommons.org/ns#"
   xmlns:dc="http://purl.org/dc/elements/1.1/"><defs
   id="defs4" /><sodipodi:namedview
   id="namedview4"
   pagecolor="#ffffff"
   bordercolor="#000000"
   borderopacity="0.25"
   inkscape:showpageshadow="2"
   inkscape:pageopacity="0.0"
   inkscape:pagecheckerboard="0"
   inkscape:deskcolor="#d1d1d1"
   inkscape:zoom="1.1513517"
   inkscape:cx="473.79094"
   inkscape:cy="276.63137"
   inkscape:window-width="1920"
   inkscape:window-height="1027"
   inkscape:window-x="-8"
   inkscape:window-y="-8"
   inkscape:window-maximized="1"
   inkscape:current-layer="svg4"
   showgrid="false" />
    <title
   id="title1">Blender logo (without text)</title>
    
<metadata
   id="metadata4"><rdf:RDF><cc:Work
       rdf:about=""><dc:title>Blender logo (without text)</dc:title></cc:Work></rdf:RDF></metadata><path
   id="path2"
   style="fill:#ff0000;fill-opacity:1;stroke-width:18.4"
   d="M 460,24.48 A 235.52,235.52 0 0 0 224.48,260 235.52,235.52 0 0 0 460,495.52 235.52,235.52 0 0 0 695.52,260 235.52,235.52 0 0 0 460,24.48 Z M 375.82,171.22 H 460 544.18 l 6.47774,2.03765 c 8.03556,2.52822 16.2035,7.7247 21.48702,13.66884 4.80634,5.40727 9.82757,15.50728 11.12087,22.36929 1.24389,6.59996 1.24389,94.80848 0,101.40844 -1.29331,6.86201 -6.31453,16.96202 -11.12087,22.36929 -5.09136,5.72795 -13.2168,11.00655 -20.99827,13.64009 l -6.04649,2.04664 -81.88,0.14375 c -45.034,0.0791 -83.99714,-0.17488 -86.58422,-0.56423 -11.23021,-1.69012 -21.60552,-7.19411 -28.78054,-15.26625 -4.80634,-5.40727 -9.82758,-15.50728 -11.12087,-22.36929 -1.24389,-6.59996 -1.24388,-94.80848 0,-101.40844 1.2933,-6.86201 6.31453,-16.96202 11.12087,-22.36929 5.28352,-5.94414 13.45146,-11.14062 21.48702,-13.66884 z m 52.52985,51.98 c -0.30229,0 -0.54985,16.56 -0.54985,36.8 0,20.24 0.24756,36.8 0.54985,36.8 0.90956,0 62.93015,-36.2681 62.93015,-36.8 0,-0.5319 -62.02059,-36.8 -62.93015,-36.8 z" /></svg>
