<?xml version="1.0" encoding="UTF-8" standalone="no"?>
<svg
   style="clip-rule:evenodd;fill-rule:evenodd;stroke-linejoin:round;stroke-miterlimit:2"
   version="1.1"
   viewBox="0 0 919.99998 519.99999"
   xml:space="preserve"
   id="svg4"
   sodipodi:docname="Button icon Gitbook - 920x520 - YouTube.svg"
   width="920"
   height="520"
   inkscape:version="1.4 (86a8ad7, 2024-10-11)"
   xmlns:inkscape="http://www.inkscape.org/namespaces/inkscape"
   xmlns:sodipodi="http://sodipodi.sourceforge.net/DTD/sodipodi-0.dtd"
   xmlns="http://www.w3.org/2000/svg"
   xmlns:svg="http://www.w3.org/2000/svg"
   xmlns:rdf="http://www.w3.org/1999/02/22-rdf-syntax-ns#"
   xmlns:cc="http://creativecommons.org/ns#"
   xmlns:dc="http://purl.org/dc/elements/1.1/"><defs
   id="defs4" /><sodipodi:namedview
   id="namedview4"
   pagecolor="#ffffff"
   bordercolor="#000000"
   borderopacity="0.25"
   inkscape:showpageshadow="2"
   inkscape:pageopacity="0.0"
   inkscape:pagecheckerboard="0"
   inkscape:deskcolor="#d1d1d1"
   inkscape:zoom="1.1513517"
   inkscape:cx="474.22519"
   inkscape:cy="276.63136"
   inkscape:window-width="1920"
   inkscape:window-height="1027"
   inkscape:window-x="-8"
   inkscape:window-y="-8"
   inkscape:window-maximized="1"
   inkscape:current-layer="svg4"
   showgrid="false" />
    <title
   id="title1">Blender logo (without text)</title>
    
<metadata
   id="metadata4"><rdf:RDF><cc:Work
       rdf:about=""><dc:title>Blender logo (without text)</dc:title></cc:Work></rdf:RDF></metadata><path
   id="path2"
   style="fill:#ff0000;fill-opacity:1;stroke-width:20"
   d="M 460,4 A 256,256 0 0 0 204,260 256,256 0 0 0 460,516 256,256 0 0 0 716,260 256,256 0 0 0 460,4 Z m -91.5,159.5 h 91.5 91.5 l 7.04102,2.21484 c 8.73431,2.74806 17.6125,8.39641 23.35546,14.85743 5.22428,5.87747 10.68214,16.85574 12.0879,24.31445 1.35206,7.17387 1.35205,103.05269 0,110.22656 -1.40577,7.45871 -6.86362,18.43698 -12.0879,24.31445 -5.53409,6.22603 -14.36609,11.96364 -22.82421,14.82618 l -6.57227,2.22461 -89,0.15625 c -48.95,0.086 -91.30124,-0.19009 -94.11328,-0.61329 -12.20675,-1.83709 -23.48426,-7.81969 -31.2832,-16.59375 -5.22428,-5.87747 -10.68215,-16.85574 -12.0879,-24.31445 -1.35205,-7.17387 -1.35204,-103.05269 0,-110.22656 1.40576,-7.45871 6.86362,-18.43698 12.0879,-24.31445 5.74296,-6.46102 14.62115,-12.10937 23.35546,-14.85743 z M 425.59766,220 C 425.26909,220 425,238 425,260 c 0,22 0.26909,40 0.59766,40 C 426.58632,300 494,260.57815 494,260 c 0,-0.57815 -67.41368,-40 -68.40234,-40 z" /></svg>
