<?xml version="1.0" encoding="UTF-8" standalone="no"?>
<svg
   style="clip-rule:evenodd;fill-rule:evenodd;stroke-linejoin:round;stroke-miterlimit:2"
   version="1.1"
   viewBox="0 0 919.99998 519.99999"
   xml:space="preserve"
   id="svg4"
   sodipodi:docname="Button icon Gitbook - 920x520 - LinkTree.svg"
   width="920"
   height="520"
   inkscape:version="1.4 (86a8ad7, 2024-10-11)"
   xmlns:inkscape="http://www.inkscape.org/namespaces/inkscape"
   xmlns:sodipodi="http://sodipodi.sourceforge.net/DTD/sodipodi-0.dtd"
   xmlns="http://www.w3.org/2000/svg"
   xmlns:svg="http://www.w3.org/2000/svg"
   xmlns:rdf="http://www.w3.org/1999/02/22-rdf-syntax-ns#"
   xmlns:cc="http://creativecommons.org/ns#"
   xmlns:dc="http://purl.org/dc/elements/1.1/"><defs
   id="defs4" /><sodipodi:namedview
   id="namedview4"
   pagecolor="#ffffff"
   bordercolor="#000000"
   borderopacity="0.25"
   inkscape:showpageshadow="2"
   inkscape:pageopacity="0.0"
   inkscape:pagecheckerboard="0"
   inkscape:deskcolor="#d1d1d1"
   inkscape:zoom="1.6282573"
   inkscape:cx="462.76471"
   inkscape:cy="236.7562"
   inkscape:window-width="1920"
   inkscape:window-height="1027"
   inkscape:window-x="-8"
   inkscape:window-y="-8"
   inkscape:window-maximized="1"
   inkscape:current-layer="svg4"
   showgrid="false" />
    <title
   id="title1">Blender logo (without text)</title>
    
<metadata
   id="metadata4"><rdf:RDF><cc:Work
       rdf:about=""><dc:title>Blender logo (without text)</dc:title></cc:Work></rdf:RDF></metadata><path
   id="rect2"
   style="fill:#000000;fill-opacity:1;stroke:#42e661;stroke-width:6;stroke-dasharray:none;stroke-opacity:1"
   d="m 300.3225,25.556328 c -41.00585,0 -74.01867,33.012818 -74.01867,74.018672 v 320.85 c 0,41.00585 33.01282,74.01867 74.01867,74.01867 h 319.355 c 41.00585,0 74.01867,-33.01282 74.01867,-74.01867 V 99.575 c 0,-41.005854 -33.01282,-74.018672 -74.01867,-74.018672 z M 434.1214,80.271172 H 486.45 v 87.624608 l 60.20429,-61.58789 34.89172,35.55297 -63.3057,59.90961 h 88.90938 V 251.3211 H 517.6725 l 63.59679,61.58968 -34.89171,34.71383 -86.37579,-86.50336 -86.37578,86.50336 -34.88991,-34.71383 63.58062,-61.58968 h -89.46641 v -49.55063 h 0.56243 88.90398 l -63.30571,-59.90961 34.89173,-35.55297 60.21866,61.58789 z m 0.27673,241.877338 h 52.32859 v 117.58032 h -52.32859 z" /><path
   d="m 313.4121,201.77025 h 88.90399 l -63.30439,-59.90939 34.8911,-35.55377 60.21899,61.58915 V 80.2717 h 52.32897 v 87.62454 l 60.20365,-61.58915 34.8911,35.55377 -63.30439,59.90939 h 88.90859 v 49.55072 h -89.47655 l 63.59604,61.58978 -34.8911,34.71457 -86.3758,-86.50476 -86.37582,86.50476 -34.89109,-34.71457 63.5807,-61.58978 h -89.46581 v -49.55072 z m 120.98599,120.37828 h 52.32898 V 439.7283 H 434.3981 Z"
   id="path1"
   sodipodi:nodetypes="cccccccccccccccccccccccccccc"
   style="fill:none;stroke:#42e661;stroke-width:16;stroke-dasharray:none;stroke-opacity:1" /></svg>
