<?xml version="1.0" encoding="UTF-8" standalone="no"?>
<svg
   style="clip-rule:evenodd;fill-rule:evenodd;stroke-linejoin:round;stroke-miterlimit:2"
   version="1.1"
   viewBox="0 0 919.99998 519.99999"
   xml:space="preserve"
   id="svg4"
   sodipodi:docname="Button icon Gitbook - 920x520 - Website.svg"
   width="920"
   height="520"
   inkscape:version="1.4 (86a8ad7, 2024-10-11)"
   xmlns:inkscape="http://www.inkscape.org/namespaces/inkscape"
   xmlns:sodipodi="http://sodipodi.sourceforge.net/DTD/sodipodi-0.dtd"
   xmlns="http://www.w3.org/2000/svg"
   xmlns:svg="http://www.w3.org/2000/svg"
   xmlns:rdf="http://www.w3.org/1999/02/22-rdf-syntax-ns#"
   xmlns:cc="http://creativecommons.org/ns#"
   xmlns:dc="http://purl.org/dc/elements/1.1/"><defs
   id="defs4" /><sodipodi:namedview
   id="namedview4"
   pagecolor="#ffffff"
   bordercolor="#000000"
   borderopacity="0.25"
   inkscape:showpageshadow="2"
   inkscape:pageopacity="0.0"
   inkscape:pagecheckerboard="0"
   inkscape:deskcolor="#d1d1d1"
   inkscape:zoom="0.81412863"
   inkscape:cx="491.32285"
   inkscape:cy="305.23432"
   inkscape:window-width="1920"
   inkscape:window-height="1027"
   inkscape:window-x="-8"
   inkscape:window-y="-8"
   inkscape:window-maximized="1"
   inkscape:current-layer="svg4"
   showgrid="false" />
    <title
   id="title1">Blender logo (without text)</title>
    
<metadata
   id="metadata4"><rdf:RDF><cc:Work
       rdf:about=""><dc:title>Blender logo (without text)</dc:title></cc:Work></rdf:RDF></metadata><path
   style="fill:#000000"
   d="m 440,513.11221 c -26.20373,-8.4816 -50.4549,-32.92096 -69.31167,-69.84955 -5.80838,-11.37497 -14.97021,-33.31411 -14.22376,-34.06056 0.66919,-0.66919 17.75856,-4.07187 29.03543,-5.78127 15.27267,-2.3151 35.46256,-4.30492 51.24827,-5.0508 L 451,397.69664 V 456.34832 515 l -2.75,-0.0538 c -1.5125,-0.0296 -5.225,-0.85488 -8.25,-1.83401 z m 29,-56.76389 v -58.65168 l 14.25173,0.67339 c 15.78571,0.74588 35.9756,2.7357 51.24827,5.0508 11.27687,1.7094 28.36624,5.11208 29.03543,5.78127 0.74645,0.74645 -8.41538,22.68559 -14.22376,34.06056 -13.21594,25.88174 -30.38791,47.25286 -47.04983,58.55518 C 491.57174,509.06928 477.65017,515 471.3185,515 H 469 Z m -87,47.73739 C 351.98244,494.0988 326.53931,480.6833 302.7425,462.2953 293.40783,455.08232 276,439.21022 276,437.91204 c 0,-2.96334 56.99796,-25.07939 61.10602,-23.71003 0.62431,0.2081 2.57703,4.4168 4.33936,9.35266 9.63359,26.98127 26.78292,54.90968 46.48041,75.69533 4.56056,4.8125 7.68044,8.73015 6.93307,8.70589 -0.74737,-0.0243 -6.53386,-1.76584 -12.85886,-3.87018 z m 143.97837,2.35152 c 0.8131,-1.06548 4.34025,-5.0252 7.83811,-8.79938 18.30568,-19.75178 35.49654,-48.19977 44.69535,-73.96334 1.78587,-5.00177 3.75784,-9.2644 4.38215,-9.4725 C 586.93632,412.85456 644,435.01428 644,437.9315 c 0,1.18162 -13.67891,13.89714 -23.5,21.84493 -23.3868,18.92593 -55.90077,36.25207 -84,44.76216 -4.95,1.49915 -9.675,2.97551 -10.5,3.2808 -1.3268,0.49098 -1.3293,0.33138 -0.0216,-1.38216 z M 255.74874,414.25 C 224.84272,372.33856 208.54354,328.59034 204.5175,276.74144 l -0.60245,-7.75856 54.79248,0.25856 L 313.5,269.5 l 0.22454,6.5 c 0.88186,25.52852 4.11036,55.48305 8.40685,78 1.66352,8.71815 7.60974,33.97864 9.45829,40.1803 0.4112,1.37952 -1.61054,2.33705 -11.29441,5.34921 -15.683,4.87819 -32.4019,11.52341 -45.52861,18.09615 C 268.86332,420.58155 263.62107,423 263.11721,423 c -0.50386,0 -3.81967,-3.9375 -7.36847,-8.75 z M 645.5,417.81115 c -12.8842,-6.55371 -28.40211,-12.77349 -44.64668,-17.89497 -10.60726,-3.34419 -12.84703,-4.37904 -12.43935,-5.74737 1.84785,-6.20211 7.79303,-31.46067 9.45464,-40.16881 4.29649,-22.51695 7.52499,-52.47148 8.40685,-78 l 0.22454,-6.5 54.79248,-0.25856 54.79247,-0.25856 -0.60245,7.75856 c -2.96913,38.23766 -13.27331,73.74876 -30.65186,105.635 -8.82468,16.19156 -25.83194,40.67691 -28.18119,40.57245 C 656.01725,422.92079 651,420.6088 645.5,417.81115 Z M 348.54602,385.75 c -8.34628,-29.02137 -14.48787,-68.02002 -16.1432,-102.50799 l -0.68434,-14.25798 59.39076,0.25798 L 450.5,269.5 l 0.25848,54.63115 0.25849,54.63115 -2.25849,0.6052 c -1.24216,0.33285 -6.53348,0.62023 -11.75848,0.6386 -16.88889,0.0594 -49.36261,3.90918 -72.38752,8.58159 C 358.07435,389.91446 352.12442,391 351.39042,391 c -0.75154,0 -1.99414,-2.29352 -2.8444,-5.25 z M 557,388.94936 c -20.61356,-4.47953 -57.6164,-8.93787 -74.3901,-8.96301 -5.01044,-0.008 -10.12622,-0.286 -11.36838,-0.61885 l -2.25849,-0.6052 0.25849,-54.63115 L 469.5,269.5 l 59.39076,-0.25799 59.39076,-0.25798 -0.68434,14.25798 c -1.65533,34.48797 -7.79692,73.48662 -16.1432,102.50799 -1.75127,6.08945 -1.45566,6.02402 -14.45398,3.19936 z M 204.57373,242.75 c 1.56826,-20.85011 6.88181,-47.15475 13.28156,-65.75 8.49704,-24.68923 23.3417,-52.2628 38.91893,-72.29094 2.59918,-3.34185 4.9826,-6.452025 5.29649,-6.911496 0.31389,-0.459471 6.64644,2.086265 14.07232,5.657186 14.82343,7.12823 34.75218,14.89685 47.67006,18.58274 7.40881,2.11397 8.25159,2.59447 7.74766,4.41725 C 321.23563,163.80224 314,211.69924 314,242.69989 V 251 h -55.0234 -55.02339 z m 127.43034,3 c 0.0124,-16.04169 3.56697,-49.54752 7.61178,-71.75 2.53641,-13.92275 9.08081,-41.89115 10.24176,-43.76961 0.44757,-0.72418 4.31115,-0.32091 12.14933,1.2681 22.21444,4.50348 48.90737,7.70299 75.74306,9.07885 L 451,141.25666 V 196.12833 251 H 391.5 332 Z M 469,196.12833 v -54.87167 l 13.25,-0.67932 c 26.83569,-1.37586 53.52862,-4.57537 75.74306,-9.07885 7.83818,-1.58901 11.70176,-1.99228 12.14933,-1.2681 1.16095,1.87846 7.70535,29.84686 10.24176,43.76961 4.04481,22.20248 7.59936,55.70831 7.61178,71.75 l 0.004,5.25 h -59.5 -59.5 z m 137,46.57156 c 0,-31.00065 -7.23563,-78.89765 -17.56075,-116.24515 -0.50393,-1.82278 0.33885,-2.30328 7.74766,-4.41725 12.91788,-3.68589 32.84663,-11.45451 47.67007,-18.58273 7.42588,-3.570931 13.75842,-6.116667 14.07231,-5.657196 0.31389,0.459471 2.69731,3.569646 5.2965,6.911496 15.57723,20.02814 30.42188,47.60171 38.91893,72.29094 6.39974,18.59525 11.7133,44.89989 13.28155,65.75 L 716.0468,251 H 661.0234 606 Z M 440.5,122.33933 c -11.77763,-0.45251 -33.40879,-2.33179 -45,-3.90953 -10.30526,-1.4027 -38.64804,-6.40832 -39.29176,-6.93931 -0.6613,-0.5455 8.21065,-21.354983 14.20211,-33.311578 C 389.66959,39.74504 414.82385,14.62869 441.77564,6.92117 445.47054,5.86453 449.05757,5 449.74682,5 450.7369,5 451,17.38676 451,64 c 0,55.59842 -0.10089,58.98871 -1.75,58.80414 -0.9625,-0.10772 -4.9,-0.31689 -8.75,-0.46481 z M 469,63.87445 C 469,17.36182 469.26313,5 470.25318,5 c 0.68925,0 4.27628,0.86453 7.97118,1.92117 26.95179,7.70752 52.10605,32.82387 71.36529,71.257742 5.99146,11.956595 14.86341,32.766078 14.20211,33.311578 -0.64785,0.5344 -29.01074,5.53954 -39.29176,6.93373 -11.93151,1.61801 -31.5648,3.28295 -46.25,3.92209 L 469,122.7489 Z m -135.5,41.98096 c -1.65,-0.54268 -7.95,-2.58915 -14,-4.54772 -6.05,-1.958575 -13.7,-4.655378 -17,-5.992899 -5.42439,-2.19856 -25.36009,-11.28709 -26.44503,-12.056087 C 275.18454,82.641748 289.65219,68.70894 299.11257,61.0535 316.68693,46.83216 338.83628,33.52945 360,24.48503 369.3496,20.48943 391.34036,13 393.72279,13 c 0.86925,0 -1.12791,2.81622 -4.72135,6.65761 -20.51552,21.93116 -37.46305,49.37808 -47.6019,77.09239 -2.06239,5.6375 -4.00849,10.21447 -4.32467,10.17105 -0.31618,-0.0434 -1.92487,-0.52296 -3.57487,-1.06564 z M 578.92141,97.775544 C 574.40758,85.248636 562.5323,61.51407 555.26771,50.5 548.21882,39.81296 539.56442,28.81454 530.99856,19.65761 527.38618,15.79597 525.40563,13 526.28258,13 c 2.29716,0 24.83858,7.70104 34.05904,11.63592 19.61943,8.37268 41.63041,21.41929 58.15838,34.47232 8.40145,6.63508 25.5,22.661448 25.5,23.901003 0,0.398258 -2.1375,1.649213 -4.75,2.7799 -2.6125,1.130686 -9.025,3.939646 -14.25,6.242132 -10.39934,4.582648 -23.07814,9.242245 -32.64826,11.998575 -3.38155,0.97394 -7.03472,2.05215 -8.11817,2.39602 -1.72599,0.5478 -2.38373,-0.52327 -5.31216,-8.650326 z"
   id="path1" /></svg>
