<?xml version="1.0" encoding="UTF-8" standalone="no"?>
<svg
   style="clip-rule:evenodd;fill-rule:evenodd;stroke-linejoin:round;stroke-miterlimit:2"
   version="1.1"
   viewBox="0 0 919.99998 519.99999"
   xml:space="preserve"
   id="svg4"
   sodipodi:docname="Button icon Gitbook - 920x520 - Website.svg"
   width="920"
   height="520"
   inkscape:version="1.4 (86a8ad7, 2024-10-11)"
   xmlns:inkscape="http://www.inkscape.org/namespaces/inkscape"
   xmlns:sodipodi="http://sodipodi.sourceforge.net/DTD/sodipodi-0.dtd"
   xmlns="http://www.w3.org/2000/svg"
   xmlns:svg="http://www.w3.org/2000/svg"
   xmlns:rdf="http://www.w3.org/1999/02/22-rdf-syntax-ns#"
   xmlns:cc="http://creativecommons.org/ns#"
   xmlns:dc="http://purl.org/dc/elements/1.1/"><defs
   id="defs4" /><sodipodi:namedview
   id="namedview4"
   pagecolor="#ffffff"
   bordercolor="#000000"
   borderopacity="0.25"
   inkscape:showpageshadow="2"
   inkscape:pageopacity="0.0"
   inkscape:pagecheckerboard="0"
   inkscape:deskcolor="#d1d1d1"
   inkscape:zoom="0.81412863"
   inkscape:cx="490.09454"
   inkscape:cy="305.23432"
   inkscape:window-width="1920"
   inkscape:window-height="1027"
   inkscape:window-x="-8"
   inkscape:window-y="-8"
   inkscape:window-maximized="1"
   inkscape:current-layer="svg4"
   showgrid="false" />
    <title
   id="title1">Blender logo (without text)</title>
    
<metadata
   id="metadata4"><rdf:RDF><cc:Work
       rdf:about=""><dc:title>Blender logo (without text)</dc:title></cc:Work></rdf:RDF></metadata><path
   style="fill:#000000;stroke-width:0.92"
   d="m 441.6,492.86323 c -24.10743,-7.80307 -46.41851,-30.28728 -63.76674,-64.26158 -5.34371,-10.46498 -13.77259,-30.64898 -13.08586,-31.33572 0.61566,-0.61565 16.33788,-3.74612 26.7126,-5.31877 14.05086,-2.12989 32.62556,-3.96052 47.14841,-4.64673 L 451.72,386.68091 V 440.64045 494.6 l -2.53,-0.0495 c -1.3915,-0.0272 -4.807,-0.78649 -7.59,-1.68729 z m 26.68,-52.22278 v -53.95954 l 13.11159,0.61952 c 14.52285,0.68621 33.09755,2.51684 47.14841,4.64673 10.37472,1.57265 26.09694,4.70312 26.7126,5.31877 0.68673,0.68674 -7.74215,20.87074 -13.08586,31.33572 -12.15867,23.8112 -27.95688,43.47263 -43.28585,53.87076 C 489.046,489.14374 476.23816,494.6 470.41302,494.6 H 468.28 Z m -80.04,43.9184 c -27.61616,-9.18795 -51.02383,-21.53021 -72.9169,-38.44717 -8.5879,-6.63595 -24.6031,-21.23828 -24.6031,-22.4326 0,-2.72628 52.43812,-23.07304 56.21754,-21.81323 0.57436,0.19145 2.37087,4.06346 3.99221,8.60445 8.8629,24.82276 24.64029,50.5169 42.76198,69.6397 4.19571,4.4275 7.066,8.03174 6.37842,8.00942 -0.68758,-0.0224 -6.01115,-1.62457 -11.83015,-3.56057 z m 132.4601,2.1634 c 0.74805,-0.98024 3.99303,-4.62318 7.21106,-8.09543 16.84123,-18.17164 32.65682,-44.34379 41.11972,-68.04627 1.643,-4.60163 3.45722,-8.52325 4.03158,-8.7147 3.71895,-1.23965 56.21754,19.14729 56.21754,21.83113 0,1.08709 -12.5846,12.78537 -21.62,20.09734 -21.51586,17.41185 -51.42871,33.3519 -77.28,41.18118 -4.554,1.37922 -8.901,2.73747 -9.66,3.01834 -1.22066,0.4517 -1.22296,0.30487 -0.0199,-1.27159 z M 272.08884,401.91 C 243.6553,363.35148 228.66006,323.10311 224.9561,275.40212 l -0.55425,-7.13787 50.40908,0.23787 50.40907,0.23788 0.20658,5.98 c 0.81131,23.48624 3.78153,51.04441 7.7343,71.76 1.53044,8.0207 7.00096,31.26035 8.70163,36.96588 0.3783,1.26915 -1.4817,2.15008 -10.39086,4.92127 -14.42836,4.48793 -29.80975,10.60154 -41.88632,16.64846 -5.43108,2.71942 -10.25395,4.94439 -10.7175,4.94439 -0.46355,0 -3.51409,-3.6225 -6.77899,-8.05 z M 630.66,405.18626 c -11.85346,-6.02942 -26.12994,-11.75161 -41.07495,-16.46337 -9.75867,-3.07666 -11.81926,-4.02872 -11.4442,-5.28758 1.70002,-5.70595 7.16959,-28.94382 8.69827,-36.95531 3.95277,-20.71559 6.92299,-48.27376 7.7343,-71.76 l 0.20658,-5.98 50.40908,-0.23788 50.40907,-0.23787 -0.55425,7.13787 c -2.7316,35.17865 -12.21145,67.84886 -28.19971,97.1842 -8.11871,14.89624 -23.76539,37.42276 -25.9267,37.32666 -0.58162,-0.0258 -5.19749,-2.15288 -10.25749,-4.72672 z M 357.46234,375.69 c -7.67858,-26.69966 -13.32884,-62.57842 -14.85175,-94.30735 l -0.62959,-13.11734 54.6395,0.23734 54.6395,0.23735 0.2378,50.26066 0.23781,50.26066 -2.07781,0.55678 c -1.14279,0.30622 -6.0108,0.57061 -10.8178,0.58751 -15.53778,0.0546 -45.4136,3.59645 -66.59652,7.89506 -6.01508,1.22063 -11.48901,2.21933 -12.16429,2.21933 -0.69142,0 -1.83461,-2.11004 -2.61685,-4.83 z M 549.24,378.63341 c -18.96448,-4.12117 -53.00709,-8.22284 -68.43889,-8.24597 -4.60961,-0.007 -9.31612,-0.26312 -10.45891,-0.56934 l -2.07781,-0.55678 0.23781,-50.26066 0.2378,-50.26066 54.6395,-0.23735 54.6395,-0.23734 -0.62959,13.11734 c -1.52291,31.72893 -7.17317,67.60769 -14.85175,94.30735 -1.61117,5.60229 -1.33921,5.5421 -13.29766,2.94341 z M 225.00783,244.13 c 1.4428,-19.1821 6.33127,-43.38237 12.21904,-60.49 7.81727,-22.71409 21.47436,-48.08178 35.80541,-66.50766 2.39125,-3.07451 4.58399,-5.93587 4.87277,-6.35858 0.28878,-0.42271 6.11473,1.91936 12.94654,5.20461 13.63755,6.55797 31.972,13.7051 43.85645,17.09612 6.81611,1.94485 7.59147,2.38691 7.12785,4.06387 C 332.33678,171.49806 325.68,215.5633 325.68,244.0839 v 7.6361 h -50.62153 -50.62152 z m 117.23591,2.76 c 0.0114,-14.75835 3.28162,-45.58372 7.00284,-66.01 2.3335,-12.80893 8.35435,-38.53986 9.42242,-40.26804 0.41177,-0.66625 3.96626,-0.29524 11.17738,1.16665 20.43729,4.1432 44.99479,7.08675 69.68362,8.35254 l 12.19,0.62498 V 201.23806 251.72 H 396.98 342.24 Z M 468.28,201.23806 v -50.48193 l 12.19,-0.62498 c 24.68883,-1.26579 49.24633,-4.20934 69.68362,-8.35254 7.21112,-1.46189 10.76561,-1.8329 11.17738,-1.16665 1.06807,1.72818 7.08892,27.45911 9.42242,40.26804 3.72122,20.42628 6.99141,51.25165 7.00284,66.01 l 0.004,4.83 h -54.74 -54.74 z m 126.04,42.84584 c 0,-28.5206 -6.65678,-72.58584 -16.15589,-106.94554 -0.46362,-1.67696 0.31174,-2.11902 7.12785,-4.06387 11.88445,-3.39102 30.2189,-10.53815 43.85646,-17.09611 6.83181,-3.28526 12.65775,-5.62733 12.94653,-5.20462 0.28878,0.42271 2.48152,3.28407 4.87278,6.35858 14.33105,18.42588 27.98813,43.79357 35.80541,66.50766 5.88776,17.10763 10.77624,41.3079 12.21903,60.49 l 0.57089,7.59 H 644.94153 594.32 Z M 442.06,133.35218 c -10.83542,-0.41631 -30.73609,-2.14524 -41.4,-3.59676 -9.48084,-1.29049 -35.5562,-5.89566 -36.14842,-6.38417 -0.6084,-0.50186 7.5538,-19.64658 13.06594,-30.646651 17.7185,-35.359162 40.86042,-58.466204 65.65607,-65.557123 C 446.6329,26.195368 449.93296,25.4 450.56707,25.4 c 0.91088,0 1.15293,11.395819 1.15293,54.28 0,51.15055 -0.0928,54.26961 -1.61,54.09981 -0.8855,-0.0991 -4.508,-0.29154 -8.05,-0.42763 z M 468.28,79.564494 C 468.28,36.772874 468.52208,25.4 469.43293,25.4 c 0.63411,0 3.93417,0.795368 7.33348,1.767476 24.79565,7.090919 47.93757,30.197961 65.65607,65.557123 5.51214,11.000071 13.67434,30.144791 13.06594,30.646651 -0.59602,0.49165 -26.68988,5.09638 -36.14842,6.37903 -10.97699,1.48857 -29.03962,3.02032 -42.55,3.60833 l -8.51,0.37038 z M 343.62,118.18698 c -1.518,-0.49927 -7.314,-2.38202 -12.88,-4.18391 -5.566,-1.80188 -12.604,-4.28294 -15.64,-5.51346 -4.99044,-2.02268 -23.33128,-10.384125 -24.32943,-11.091602 -0.80079,-0.5676 12.50944,-13.385783 21.21299,-20.428788 C 328.15198,63.885587 348.52938,51.647094 368,43.326228 376.60163,39.650276 396.83313,32.76 399.02497,32.76 c 0.79971,0 -1.03768,2.590922 -4.34365,6.125001 -18.87427,20.176667 -34.466,45.427834 -43.79374,70.924999 -1.8974,5.1865 -3.68781,9.39731 -3.9787,9.35737 -0.29089,-0.0399 -1.77088,-0.48113 -3.28888,-0.98039 z M 569.4077,110.7535 C 565.25497,99.228745 554.32972,77.392944 547.64629,67.26 541.16131,57.427923 533.19927,47.309377 525.31868,38.885001 521.99529,35.332292 520.17318,32.76 520.97997,32.76 c 2.11339,0 22.8515,7.084957 31.33432,10.705046 18.04988,7.702866 38.29998,19.705747 53.50571,31.714535 7.72933,6.104273 23.46,20.848532 23.46,21.988923 0,0.366397 -1.9665,1.517276 -4.37,2.557508 -2.4035,1.040228 -8.303,3.624478 -13.11,5.742758 -9.56739,4.21604 -21.23189,8.50287 -30.0364,11.03869 -3.11103,0.89603 -6.47194,1.88798 -7.46872,2.20434 -1.58791,0.50398 -2.19303,-0.48141 -4.88718,-7.9583 z"
   id="path1" /></svg>
