<?xml version="1.0" encoding="UTF-8" standalone="no"?>
<svg
   style="clip-rule:evenodd;fill-rule:evenodd;stroke-linejoin:round;stroke-miterlimit:2"
   version="1.1"
   viewBox="0 0 919.99998 519.99999"
   xml:space="preserve"
   id="svg4"
   sodipodi:docname="Button icon Gitbook - 920x520 - Bandcamp.svg"
   width="920"
   height="520"
   inkscape:version="1.4 (86a8ad7, 2024-10-11)"
   xmlns:inkscape="http://www.inkscape.org/namespaces/inkscape"
   xmlns:sodipodi="http://sodipodi.sourceforge.net/DTD/sodipodi-0.dtd"
   xmlns="http://www.w3.org/2000/svg"
   xmlns:svg="http://www.w3.org/2000/svg"
   xmlns:rdf="http://www.w3.org/1999/02/22-rdf-syntax-ns#"
   xmlns:cc="http://creativecommons.org/ns#"
   xmlns:dc="http://purl.org/dc/elements/1.1/"><defs
   id="defs4" /><sodipodi:namedview
   id="namedview4"
   pagecolor="#ffffff"
   bordercolor="#000000"
   borderopacity="0.25"
   inkscape:showpageshadow="2"
   inkscape:pageopacity="0.0"
   inkscape:pagecheckerboard="0"
   inkscape:deskcolor="#d1d1d1"
   inkscape:zoom="0.40706431"
   inkscape:cx="626.43664"
   inkscape:cy="310.76171"
   inkscape:window-width="1920"
   inkscape:window-height="1027"
   inkscape:window-x="-8"
   inkscape:window-y="-8"
   inkscape:window-maximized="1"
   inkscape:current-layer="svg4" />
    <title
   id="title1">Blender logo (without text)</title>
    
<metadata
   id="metadata4"><rdf:RDF><cc:Work
       rdf:about=""><dc:title>Blender logo (without text)</dc:title></cc:Work></rdf:RDF></metadata><path
   id="path1-9"
   style="fill:#1ed760;stroke-width:20.8503"
   d="M 456.97223,4.4398862 C 321.76926,5.920645 210.04551,113.23042 204.61903,249.862 199.01751,390.92238 308.8118,509.78854 449.87216,515.36878 590.91122,520.9703 709.77944,411.17711 715.38097,270.13806 720.98249,129.09898 611.16692,10.211508 470.12784,4.6312853 465.72037,4.456238 461.33362,4.3921204 456.97223,4.4398862 Z M 411.0691,146.37838 c 21.47975,0.27251 42.95558,1.91658 64.29778,4.93564 56.92956,7.94607 112.08459,25.55738 163.08399,52.07473 11.9485,6.21918 16.61173,20.9569 10.39255,32.9267 -6.22792,11.95659 -20.96311,16.60886 -32.92671,10.39458 -46.07667,-23.95534 -95.90953,-39.85991 -147.34448,-47.02709 -51.42006,-7.29305 -103.7072,-5.74409 -154.60543,4.57932 -31.5764,6.00321 -41.12999,-41.05112 -9.71247,-47.83748 35.20651,-7.1462 71.01519,-10.50058 106.81477,-10.0464 z m -3.60806,88.42827 c 18.56827,0.12938 37.14241,1.5045 55.59523,4.12933 49.23142,6.83641 96.83666,22.45408 140.54984,46.11082 9.62694,5.21814 13.20505,17.25143 8.0082,26.89967 -5.20174,9.64506 -17.24703,13.23361 -26.87931,8.00822 -39.56825,-21.39186 -82.64532,-35.52994 -127.19468,-41.7453 -44.53741,-6.3048 -89.84301,-4.58716 -133.77554,5.07003 -10.70806,2.37415 -21.30729,-4.40575 -23.64182,-15.12254 -2.37415,-10.70806 4.4037,-21.30729 15.1205,-23.64183 30.33741,-6.68109 61.27045,-9.92402 92.21758,-9.7084 z m -3.36374,79.16988 c 15.94584,-0.0189 31.94955,1.09292 47.94743,3.33726 42.66101,6.00619 83.12909,19.766 120.27378,40.89418 7.32861,4.17539 9.88378,13.5017 5.70735,20.82989 -4.17495,7.31606 -14.63416,11.17257 -21.95745,7.01062 -33.78953,-19.22642 -69.3247,-30.89324 -107.83059,-36.24833 -38.48671,-5.46543 -77.66128,-3.56439 -115.4379,5.60146 -19.07946,3.70254 -26.30543,-26.45067 -7.65259,-31.91012 25.95763,-6.30971 52.37357,-9.48355 78.94997,-9.51496 z"
   sodipodi:nodetypes="sccscsscccccccssccccccccsscccccccs" /></svg>
