<?xml version="1.0" encoding="UTF-8" standalone="no"?>
<svg
   style="clip-rule:evenodd;fill-rule:evenodd;stroke-linejoin:round;stroke-miterlimit:2"
   version="1.1"
   viewBox="0 0 919.99998 519.99999"
   xml:space="preserve"
   id="svg4"
   sodipodi:docname="Button icon Gitbook - 920x520 - LinkTree.svg"
   width="920"
   height="520"
   inkscape:version="1.4 (86a8ad7, 2024-10-11)"
   xmlns:inkscape="http://www.inkscape.org/namespaces/inkscape"
   xmlns:sodipodi="http://sodipodi.sourceforge.net/DTD/sodipodi-0.dtd"
   xmlns="http://www.w3.org/2000/svg"
   xmlns:svg="http://www.w3.org/2000/svg"
   xmlns:rdf="http://www.w3.org/1999/02/22-rdf-syntax-ns#"
   xmlns:cc="http://creativecommons.org/ns#"
   xmlns:dc="http://purl.org/dc/elements/1.1/"><defs
   id="defs4" /><sodipodi:namedview
   id="namedview4"
   pagecolor="#ffffff"
   bordercolor="#000000"
   borderopacity="0.25"
   inkscape:showpageshadow="2"
   inkscape:pageopacity="0.0"
   inkscape:pagecheckerboard="0"
   inkscape:deskcolor="#d1d1d1"
   inkscape:zoom="0.81412863"
   inkscape:cx="474.12655"
   inkscape:cy="257.33034"
   inkscape:window-width="1920"
   inkscape:window-height="1027"
   inkscape:window-x="-8"
   inkscape:window-y="-8"
   inkscape:window-maximized="1"
   inkscape:current-layer="svg4"
   showgrid="false" />
    <title
   id="title1">Blender logo (without text)</title>
    
<metadata
   id="metadata4"><rdf:RDF><cc:Work
       rdf:about=""><dc:title>Blender logo (without text)</dc:title></cc:Work></rdf:RDF></metadata><path
   id="rect2"
   style="fill:#000000;fill-opacity:1;stroke:none;stroke-width:20;stroke-dasharray:none;stroke-opacity:1"
   d="M 286.4375 5.1699219 C 241.86592 5.1699219 205.98242 41.053419 205.98242 85.625 L 205.98242 434.375 C 205.98242 478.94658 241.86592 514.83008 286.4375 514.83008 L 633.5625 514.83008 C 678.13408 514.83008 714.01758 478.94658 714.01758 434.375 L 714.01758 85.625 C 714.01758 41.053419 678.13408 5.1699219 633.5625 5.1699219 L 286.4375 5.1699219 z M 431.87109 64.642578 L 488.75 64.642578 L 488.75 159.88672 L 554.18945 92.943359 L 592.11523 131.58789 L 523.30469 196.70703 L 619.94531 196.70703 L 619.94531 250.56641 L 522.6875 250.56641 L 591.81445 317.51172 L 553.88867 355.24414 L 460.00195 261.21875 L 366.11523 355.24414 L 328.19141 317.51172 L 397.30078 250.56641 L 300.05469 250.56641 L 300.05469 196.70703 L 300.66602 196.70703 L 397.30078 196.70703 L 328.49023 131.58789 L 366.41602 92.943359 L 431.87109 159.88672 L 431.87109 64.642578 z M 432.17188 327.55273 L 489.05078 327.55273 L 489.05078 455.35742 L 432.17188 455.35742 L 432.17188 327.55273 z " /><path
   d="m 300.66533,196.70679 h 96.63477 l -68.80912,-65.1189 37.92511,-38.645399 65.45542,66.944729 V 64.643152 h 56.87932 v 95.244068 l 65.43875,-66.944729 37.92511,38.645399 -68.80913,65.1189 h 96.63978 v 53.85948 h -97.25712 l 69.12613,66.94541 -37.92511,37.73323 -93.88674,-94.02691 -93.88676,94.02691 -37.9251,-37.73323 69.10946,-66.94541 h -97.24545 v -53.85948 z m 131.50651,130.84596 h 56.87932 v 127.8041 h -56.87931 z"
   id="path1"
   sodipodi:nodetypes="cccccccccccccccccccccccccccc"
   style="fill:none;stroke:#42e661;stroke-width:15.3345;stroke-dasharray:none;stroke-opacity:1" /></svg>
