<?xml version="1.0" encoding="UTF-8" standalone="no"?>
<svg
   style="clip-rule:evenodd;fill-rule:evenodd;stroke-linejoin:round;stroke-miterlimit:2"
   version="1.1"
   viewBox="0 0 919.99998 519.99999"
   xml:space="preserve"
   id="svg4"
   sodipodi:docname="Button icon Gitbook - 920x520 - SoundCloud.svg"
   width="920"
   height="520"
   inkscape:version="1.4 (86a8ad7, 2024-10-11)"
   xmlns:inkscape="http://www.inkscape.org/namespaces/inkscape"
   xmlns:sodipodi="http://sodipodi.sourceforge.net/DTD/sodipodi-0.dtd"
   xmlns="http://www.w3.org/2000/svg"
   xmlns:svg="http://www.w3.org/2000/svg"
   xmlns:rdf="http://www.w3.org/1999/02/22-rdf-syntax-ns#"
   xmlns:cc="http://creativecommons.org/ns#"
   xmlns:dc="http://purl.org/dc/elements/1.1/"><defs
   id="defs4" /><sodipodi:namedview
   id="namedview4"
   pagecolor="#ffffff"
   bordercolor="#000000"
   borderopacity="0.25"
   inkscape:showpageshadow="2"
   inkscape:pageopacity="0.0"
   inkscape:pagecheckerboard="0"
   inkscape:deskcolor="#d1d1d1"
   inkscape:zoom="1.1513517"
   inkscape:cx="473.79094"
   inkscape:cy="276.63137"
   inkscape:window-width="1920"
   inkscape:window-height="1027"
   inkscape:window-x="-8"
   inkscape:window-y="-8"
   inkscape:window-maximized="1"
   inkscape:current-layer="svg4"
   showgrid="false" />
    <title
   id="title1">Blender logo (without text)</title>
    
<metadata
   id="metadata4"><rdf:RDF><cc:Work
       rdf:about=""><dc:title>Blender logo (without text)</dc:title></cc:Work></rdf:RDF></metadata><path
   style="fill:#ff6a22;fill-opacity:1;stroke-width:0.92"
   d="m 438.9092,494.46674 c -43.25104,-3.84039 -85.42408,-20.19131 -121.42824,-47.07896 -11.35281,-8.4782 -36.42086,-33.54625 -44.89906,-44.89906 -44.65859,-59.8005 -58.92249,-134.12984 -39.40283,-205.32865 7.68898,-28.0459 21.13702,-55.25042 39.40283,-79.70943 8.4782,-11.35281 33.54625,-36.420866 44.89906,-44.899066 59.8005,-44.65859 134.12984,-58.922486 205.32865,-39.402831 28.0459,7.688983 55.25042,21.137014 79.70943,39.402831 11.35281,8.4782 36.42086,33.546256 44.89906,44.899066 44.65859,59.80049 58.92249,134.12983 39.40283,205.32864 -7.68898,28.04591 -21.13702,55.25043 -39.40283,79.70944 -8.4782,11.35281 -33.54625,36.42086 -44.89906,44.89906 -47.77049,35.67467 -105.37329,52.24995 -163.60984,47.07896 z M 348.24543,332.41968 c 0.23523,-0.6325 1.17429,-9.34602 2.08679,-19.36337 1.59482,-17.50765 1.59555,-18.87953 0.0191,-35.4057 -0.90199,-9.45577 -1.84104,-17.71626 -2.08678,-18.35663 -0.48825,-1.27236 -2.8965,-1.5841 -3.58844,-0.46451 -0.23786,0.38488 -1.11503,8.62374 -1.94925,18.30858 -1.40495,16.31068 -1.40635,18.98595 -0.019,36.28972 0.82378,10.2745 1.70094,19.00964 1.94925,19.41141 0.70426,1.13951 3.11326,0.85787 3.58831,-0.4195 z m 13.83765,0.12792 c 0.34742,-0.56214 1.31042,-9.16527 2.14001,-19.11808 1.39465,-16.73226 1.39602,-20.26419 0.0182,-46.86633 -0.89966,-17.37016 -1.88388,-29.1641 -2.48386,-29.76408 -1.83789,-1.83789 -3.73681,-0.0327 -4.23587,4.02698 -0.26799,2.17997 -0.96235,15.05432 -1.54303,28.60966 -0.82559,19.27275 -0.80337,28.49933 0.10188,42.32 0.6367,9.72066 1.49883,18.60543 1.91584,19.74393 0.80236,2.19054 3.02796,2.76122 4.08683,1.04792 z m 14.04012,-0.58792 c 0.45536,-0.8855 1.36369,-9.44624 2.01851,-19.02386 0.97505,-14.26143 0.974,-23.58811 -0.006,-51.52 -0.65802,-18.75838 -1.54154,-35.03764 -1.96337,-36.17614 -0.446,-1.2037 -1.53922,-2.07 -2.61222,-2.07 -1.15866,0 -2.02305,0.77021 -2.32312,2.07 -0.26283,1.1385 -1.00584,17.33777 -1.65111,35.99839 -0.94782,27.40941 -0.94951,37.22006 -0.009,51.06 0.64044,9.42238 1.38345,18.06311 1.65111,19.20161 0.58711,2.49722 3.69689,2.78946 4.8948,0.46 z m 14.33833,0.81697 c 0.26956,-0.43618 1.13641,-9.10243 1.92634,-19.25835 1.29534,-16.65413 1.29941,-22.2221 0.0415,-56.76675 -0.76708,-21.06579 -1.63393,-38.68854 -1.92633,-39.16165 -0.7646,-1.23714 -3.7167,-1.05923 -4.80844,0.28978 -0.54919,0.67862 -1.40141,16.64106 -2.07908,38.94241 -0.91592,30.14159 -0.91697,41.50271 -0.006,56.12 0.62874,10.08017 1.56432,18.84509 2.07908,19.47759 1.07058,1.31544 4.04241,1.53774 4.77217,0.35697 z m 14.12852,-0.35697 c 0.51443,-0.6325 1.45674,-9.33275 2.09401,-19.33389 0.93123,-14.61433 0.93161,-25.90171 0.002,-57.5 -0.69223,-23.52765 -1.53314,-39.77793 -2.09401,-40.46611 -0.51541,-0.6325 -1.6638,-1.15 -2.55189,-1.15 -0.88809,0 -2.03403,0.5175 -2.54654,1.15 -0.55508,0.68504 -1.38325,17.03572 -2.04834,40.44074 -0.87915,30.93797 -0.87692,43.16182 0.0105,57.5 0.61986,10.01509 1.54162,18.72676 2.04836,19.35926 0.50672,0.6325 1.64794,1.15 2.53602,1.15 0.88809,0 2.03561,-0.5175 2.55005,-1.15 z m 14.80932,-0.92 c 2.0551,-5.6433 2.83045,-41.11747 1.68408,-77.05 -0.63766,-19.987 -1.48173,-36.8575 -1.87571,-37.49 -1.22316,-1.96368 -5.15722,-1.36981 -6.09446,0.92 -1.48605,3.63062 -2.84618,75.6166 -1.78608,94.53 0.52468,9.361 1.33184,17.9515 1.79367,19.09 0.56174,1.38482 1.61506,2.07 3.18218,2.07 1.59256,0 2.58382,-0.6627 3.09632,-2.07 z m 13.94924,0.65552 c 2.35035,-2.83199 3.27192,-34.7835 2.1595,-74.8715 -0.94915,-34.20452 -1.16609,-37.28411 -2.70584,-38.41 -2.09246,-1.53004 -2.39946,-1.5246 -4.59643,0.0816 -1.66231,1.21531 -1.83765,3.10848 -2.53483,27.37 -0.88617,30.83805 -0.20946,81.21359 1.1386,84.75925 1.0793,2.83877 4.594,3.41425 6.539,1.07067 z m 14.64123,0.0949 c 2.26017,-2.72333 3.11047,-35.72125 2.11108,-81.92507 -0.87962,-40.6669 -1.08022,-44.15566 -2.60284,-45.26902 -2.06075,-1.50687 -3.27886,-1.51988 -5.27456,-0.0563 -1.41556,1.03809 -1.66188,5.44269 -2.53116,45.25984 -0.99481,45.56712 -0.15898,79.44003 2.02515,82.07176 1.35165,1.62862 4.89135,1.58282 6.27233,-0.0811 z m 14.63189,0.10617 c 2.1486,-2.5889 3.09233,-30.86346 2.43144,-72.8466 -0.35844,-22.77 -0.91754,-45.93965 -1.24244,-51.48812 -0.57177,-9.76434 -0.6713,-10.13323 -3.1013,-11.49387 -2.32483,-1.30175 -2.64299,-1.27008 -4.30036,0.42811 -1.70087,1.7428 -1.83992,4.27841 -2.79958,51.05388 -0.68705,33.4875 -0.71537,53.63098 -0.0886,63.02 0.50667,7.59 0.92975,15.11593 0.94017,16.72428 0.0104,1.60836 0.66952,3.57486 1.46466,4.37 1.76127,1.76127 5.3245,1.8849 6.69602,0.23232 z m 138.27136,-0.5936 c 17.8832,-5.52683 29.27018,-20.94013 29.29696,-39.65602 0.0261,-18.25408 -10.83784,-33.47392 -28.28122,-39.62055 -6.44785,-2.27207 -18.88148,-2.5441 -25.18456,-0.551 l -4.25571,1.34571 -1.0581,-6.40701 C 566.8209,219.08293 544.72479,195.43753 516.58,188.19884 c -13.21453,-3.3987 -33.12156,-2.20677 -44.0764,2.63907 -3.40566,1.5065 -4.20668,2.34517 -4.66587,4.88524 -0.3049,1.68659 -0.43362,32.70757 -0.28604,68.93552 0.2207,54.1818 0.49234,66.13887 1.53095,67.39 1.15166,1.38729 6.74397,1.52101 63.6131,1.52101 59.37295,0 62.62965,-0.0863 68.19735,-1.807 z m -266.44507,-0.263 c 0.23665,-0.6325 1.18887,-9.21492 2.11603,-19.07203 1.643,-17.4675 1.64161,-18.40078 -0.0548,-36.8 -0.95733,-10.38289 -2.12953,-19.27127 -2.6049,-19.75197 -2.19016,-2.2147 -3.20089,2.02538 -4.65851,19.54274 -1.35429,16.27548 -1.37312,19.92038 -0.18401,35.61126 0.72858,9.614 1.51562,18.4115 1.74898,19.55 0.45287,2.20946 2.92119,2.8338 3.63724,0.92 z m -13.81697,-0.92 c 0.22731,-0.6325 1.23219,-9.016 2.23307,-18.63 1.80524,-17.34048 1.80556,-17.61586 0.0408,-34.5 -0.97843,-9.361 -1.78931,-17.7445 -1.80194,-18.63 -0.0228,-1.59956 -2.27605,-2.25454 -3.1106,-0.90421 -0.23992,0.38819 -1.14657,8.73771 -2.01479,18.55451 -1.48977,16.84449 -1.49021,18.8607 -0.008,35.83555 0.86385,9.89277 1.77051,18.31024 2.01479,18.7055 0.67995,1.10016 2.18431,0.85498 2.64661,-0.43135 z m -11.39001,-21.05278 1.91377,-15.16351 -1.92155,-15.065 c -2.83578,-22.23255 -4.03753,-22.15378 -6.52377,0.42759 -1.60525,14.57962 -1.60459,15.59158 0.0193,29.86593 2.52512,22.1961 3.70415,22.18433 6.51222,-0.065 z m -14.50464,3.11278 c 0.25321,-0.8855 0.98262,-5.44885 1.6209,-10.14079 0.99706,-7.32923 0.95102,-9.83516 -0.32683,-17.79177 -0.81804,-5.09354 -1.73345,-9.50708 -2.03424,-9.80788 -1.31058,-1.31058 -2.29326,1.79443 -3.34647,10.57399 -0.90609,7.55318 -0.89292,11.30958 0.067,19.09 0.82119,6.65612 1.56487,9.68645 2.37716,9.68645 0.65017,0 1.3893,-0.7245 1.64251,-1.61 z"
   id="path1-0" /></svg>
